<svg width="32" height="32" viewBox="0 0 32 32" fill="none" xmlns="http://www.w3.org/2000/svg">
<path fill-rule="evenodd" clip-rule="evenodd" d="M16 7.5191L13.9116 11.7506C13.4747 12.636 12.63 13.2497 11.6528 13.3917L6.98312 14.0702L10.3621 17.364C11.0692 18.0532 11.3919 19.0462 11.2249 20.0194L10.4273 24.6702L14.604 22.4744C15.4779 22.0149 16.522 22.0149 17.396 22.4744L21.5727 24.6702L20.775 20.0194C20.6081 19.0462 20.9308 18.0532 21.6378 17.364L25.0169 14.0702L20.3472 13.3917C19.37 13.2497 18.5253 12.636 18.0883 11.7506L16 7.5191ZM16.8967 4.81699C16.5299 4.07374 15.4701 4.07374 15.1033 4.81699L12.1182 10.8654C11.9725 11.1606 11.6909 11.3652 11.3652 11.4125L4.69036 12.3824C3.87014 12.5016 3.54263 13.5096 4.13615 14.0881L8.96613 18.7962C9.20181 19.0259 9.30936 19.3569 9.25372 19.6813L8.11352 26.3292C7.97341 27.1461 8.83084 27.769 9.56447 27.3834L15.5347 24.2446C15.826 24.0915 16.174 24.0915 16.4653 24.2446L22.4355 27.3834C23.1691 27.769 24.0266 27.1461 23.8865 26.3292L22.7463 19.6813C22.6906 19.3569 22.7982 19.0259 23.0339 18.7962L27.8638 14.0881C28.4573 13.5096 28.1298 12.5016 27.3096 12.3824L20.6348 11.4125C20.309 11.3652 20.0275 11.1606 19.8818 10.8654L16.8967 4.81699Z" fill="#253858"/>
</svg>
